<svg width="115" height="40" viewBox="0 0 115 40" fill="none" xmlns="http://www.w3.org/2000/svg">
<g clip-path="url(#clip0_17_2)">
<path fill-rule="evenodd" clip-rule="evenodd" d="M16.493 0L0 9.61746V27.1518C0 28.4245 0.753386 29.5538 1.97618 30.1141C3.19898 30.6737 4.70575 30.5796 5.92855 29.8665C10.6576 27.1087 16.493 23.7059 16.493 23.7059V0Z" fill="#A82A1C"/>
<path fill-rule="evenodd" clip-rule="evenodd" d="M27.4891 6.66699L10.9961 16.3907V37.1431L27.4891 27.4186V6.66699Z" fill="#DD4433"/>
<path fill-rule="evenodd" clip-rule="evenodd" d="M15.5767 18.8632L0 9.52344V30.659L15.5767 39.9996V18.8632Z" fill="#1A1919"/>
<path d="M38.4746 18.0954V5.62793H46.6684V8.07517H41.3737V10.0232H42.9551C43.9312 10.0232 44.7805 10.1876 45.5028 10.5163C46.2291 10.845 46.7894 11.3077 47.1838 11.9043C47.582 12.5009 47.7812 13.203 47.7812 14.0106C47.7812 14.8183 47.582 15.5285 47.1838 16.1413C46.7894 16.7541 46.2291 17.233 45.5028 17.578C44.7805 17.923 43.9312 18.0954 42.9551 18.0954H38.4746ZM41.3737 15.7091H42.9551C43.3768 15.7091 43.7321 15.634 44.021 15.4838C44.3139 15.3296 44.5345 15.1226 44.6829 14.8629C44.8352 14.5991 44.9113 14.3069 44.9113 13.9863C44.9113 13.5236 44.7434 13.1381 44.4076 12.8296C44.0718 12.5171 43.5876 12.3609 42.9551 12.3609H41.3737V15.7091Z" fill="#191919"/>
<path d="M50.8501 11.4477H53.5794C54.8172 11.4477 55.7875 11.7501 56.4903 12.3548C57.1931 12.9554 57.5465 13.7712 57.5504 14.802C57.5465 15.4717 57.3844 16.0541 57.0643 16.5492C56.748 17.0403 56.2931 17.4217 55.6996 17.6937C55.11 17.9615 54.4033 18.0954 53.5794 18.0954H49.1692V8.74481H51.8809V15.8187H53.5794C53.9542 15.8187 54.2627 15.7233 54.5048 15.5325C54.7469 15.3418 54.8699 15.0963 54.8738 14.7959C54.8699 14.4794 54.7469 14.2217 54.5048 14.0228C54.2627 13.8239 53.9542 13.7245 53.5794 13.7245H50.8501V11.4477ZM58.3586 18.0954V8.74481H61.2227V18.0954H58.3586Z" fill="#191919"/>
<path d="M67.2363 18.272C66.2875 18.272 65.4734 18.0691 64.794 17.6632C64.1185 17.2574 63.5992 16.6933 63.2361 15.9709C62.8729 15.2444 62.6914 14.4043 62.6914 13.4506C62.6914 12.4928 62.8729 11.6527 63.2361 10.9303C63.6031 10.2038 64.1244 9.63765 64.7999 9.23181C65.4793 8.82597 66.2895 8.62305 67.2305 8.62305C68.0621 8.62305 68.7864 8.7793 69.4034 9.0918C70.0242 9.40429 70.5084 9.84666 70.8559 10.4189C71.2073 10.9871 71.3928 11.6547 71.4123 12.4218H68.7357C68.681 11.9429 68.5248 11.5675 68.2671 11.2955C68.0133 11.0236 67.6814 10.8877 67.2715 10.8877C66.9396 10.8877 66.6487 10.9851 66.3988 11.1799C66.1489 11.3706 65.9537 11.6547 65.8131 12.0321C65.6764 12.4055 65.6081 12.8682 65.6081 13.4201C65.6081 13.9721 65.6764 14.4388 65.8131 14.8203C65.9537 15.1977 66.1489 15.4838 66.3988 15.6786C66.6487 15.8694 66.9396 15.9648 67.2715 15.9648C67.537 15.9648 67.7713 15.9059 67.9743 15.7882C68.1812 15.6705 68.3511 15.498 68.4838 15.2708C68.6166 15.0394 68.7005 14.7594 68.7357 14.4307H71.4123C71.385 15.2018 71.1995 15.8755 70.8559 16.4518C70.5162 17.0281 70.0379 17.4765 69.4209 17.7971C68.8079 18.1137 68.0797 18.272 67.2363 18.272Z" fill="#191919"/>
<path d="M72.3083 11.0216V8.74481H80.7423V11.0216H77.8666V18.0954H75.149V11.0216H72.3083Z" fill="#191919"/>
<path d="M82.1069 21.6019V8.7448H84.9416V10.3459H85.0295C85.1466 10.0618 85.3126 9.78782 85.5273 9.52402C85.746 9.26022 86.0232 9.04512 86.359 8.87873C86.6987 8.70827 87.1048 8.62305 87.5772 8.62305C88.202 8.62305 88.7857 8.7935 89.3284 9.13441C89.8751 9.47532 90.3163 10.0009 90.6521 10.7111C90.9879 11.4213 91.1558 12.3264 91.1558 13.4262C91.1558 14.4855 90.9937 15.3722 90.6697 16.0865C90.3495 16.8008 89.9161 17.3365 89.3694 17.6937C88.8267 18.0508 88.2234 18.2294 87.5597 18.2294C87.1067 18.2294 86.7143 18.1523 86.3824 17.998C86.0505 17.8438 85.7713 17.6409 85.5449 17.3893C85.3223 17.1377 85.1505 16.8678 85.0295 16.5796H84.9709V21.6019H82.1069ZM84.9123 13.4201C84.9123 13.9234 84.9768 14.3617 85.1056 14.7351C85.2384 15.1084 85.4277 15.3986 85.6737 15.6056C85.9236 15.8085 86.2223 15.91 86.5698 15.91C86.9213 15.91 87.22 15.8085 87.4659 15.6056C87.7119 15.3986 87.8974 15.1084 88.0223 14.7351C88.1512 14.3617 88.2156 13.9234 88.2156 13.4201C88.2156 12.9169 88.1512 12.4806 88.0223 12.1113C87.8974 11.742 87.7119 11.4558 87.4659 11.2529C87.2239 11.05 86.9252 10.9485 86.5698 10.9485C86.2184 10.9485 85.9197 11.048 85.6737 11.2468C85.4277 11.4457 85.2384 11.7298 85.1056 12.0991C84.9768 12.4684 84.9123 12.9088 84.9123 13.4201Z" fill="#191919"/>
<path d="M94.3374 11.4477H97.0668C98.3045 11.4477 99.2748 11.7501 99.9776 12.3548C100.681 12.9554 101.034 13.7712 101.038 14.802C101.034 15.4717 100.872 16.0541 100.552 16.5492C100.235 17.0403 99.7805 17.4217 99.187 17.6937C98.5974 17.9615 97.8906 18.0954 97.0668 18.0954H92.6565V8.74481H95.3683V15.8187H97.0668C97.4416 15.8187 97.7501 15.7233 97.9922 15.5325C98.2342 15.3418 98.3572 15.0963 98.3611 14.7959C98.3572 14.4794 98.2342 14.2217 97.9922 14.0228C97.7501 13.8239 97.4416 13.7245 97.0668 13.7245H94.3374V11.4477ZM101.846 18.0954V8.74481H104.71V18.0954H101.846Z" fill="#191919"/>
<path d="M110.73 18.272C109.789 18.272 108.976 18.0792 108.293 17.6937C107.614 17.3041 107.09 16.7501 106.723 16.0317C106.36 15.3093 106.179 14.451 106.179 13.4567C106.179 12.4907 106.362 11.6466 106.729 10.9242C107.096 10.1977 107.614 9.6336 108.281 9.23181C108.949 8.82597 109.736 8.62305 110.642 8.62305C111.282 8.62305 111.868 8.72654 112.399 8.93352C112.93 9.1405 113.389 9.44691 113.775 9.85275C114.162 10.2586 114.462 10.7598 114.677 11.3564C114.892 11.9489 114.999 12.6287 114.999 13.3958V14.1385H107.18V12.4096H112.334C112.33 12.093 112.258 11.811 112.118 11.5634C111.977 11.3158 111.784 11.1231 111.538 10.9851C111.296 10.843 111.017 10.772 110.7 10.772C110.38 10.772 110.093 10.8471 109.839 10.9972C109.585 11.1433 109.384 11.3442 109.236 11.5999C109.088 11.8515 109.01 12.1377 109.002 12.4583V14.2176C109.002 14.5991 109.074 14.9339 109.218 15.2221C109.363 15.5062 109.568 15.7273 109.833 15.8856C110.099 16.0439 110.415 16.123 110.782 16.123C111.036 16.123 111.266 16.0865 111.473 16.0135C111.68 15.9404 111.858 15.8329 112.006 15.6908C112.155 15.5488 112.266 15.3743 112.34 15.1673L114.97 15.2464C114.861 15.8592 114.62 16.3929 114.25 16.8475C113.882 17.298 113.4 17.649 112.803 17.9006C112.205 18.1482 111.514 18.272 110.73 18.272Z" fill="#191919"/>
<path d="M42.6739 35.4148C41.7289 35.4148 40.9168 35.2139 40.2374 34.8121C39.5619 34.4063 39.0406 33.8422 38.6736 33.1198C38.3105 32.3933 38.1289 31.5512 38.1289 30.5934C38.1289 29.6315 38.3105 28.7894 38.6736 28.067C39.0406 27.3406 39.5619 26.7764 40.2374 26.3747C40.9168 25.9688 41.7289 25.7659 42.6739 25.7659C43.6188 25.7659 44.429 25.9688 45.1045 26.3747C45.7839 26.7764 46.3051 27.3406 46.6683 28.067C47.0353 28.7894 47.2188 29.6315 47.2188 30.5934C47.2188 31.5512 47.0353 32.3933 46.6683 33.1198C46.3051 33.8422 45.7839 34.4063 45.1045 34.8121C44.429 35.2139 43.6188 35.4148 42.6739 35.4148ZM42.6914 33.1685C43.035 33.1685 43.3259 33.0589 43.5641 32.8397C43.8023 32.6206 43.9839 32.3162 44.1088 31.9266C44.2376 31.537 44.3021 31.0865 44.3021 30.5751C44.3021 30.0557 44.2376 29.6011 44.1088 29.2115C43.9839 28.8219 43.8023 28.5175 43.5641 28.2984C43.3259 28.0792 43.035 27.9696 42.6914 27.9696C42.3361 27.9696 42.0355 28.0792 41.7895 28.2984C41.5474 28.5175 41.3619 28.8219 41.2331 29.2115C41.1081 29.6011 41.0456 30.0557 41.0456 30.5751C41.0456 31.0865 41.1081 31.537 41.2331 31.9266C41.3619 32.3162 41.5474 32.6206 41.7895 32.8397C42.0355 33.0589 42.3361 33.1685 42.6914 33.1685Z" fill="#191919"/>
<path d="M47.907 28.1644V25.8876H56.3409V28.1644H53.4652V35.2383H50.7476V28.1644H47.907Z" fill="#191919"/>
<path d="M65.532 25.8876V35.2383H62.8378V25.8876H65.532ZM64.1673 29.8751V32.1518C64.015 32.233 63.8003 32.3121 63.523 32.3893C63.2497 32.4623 62.9608 32.5232 62.6562 32.5719C62.3556 32.6206 62.0881 32.6449 61.8538 32.6449C60.4716 32.6449 59.3881 32.371 58.6033 31.8231C57.8223 31.2712 57.4319 30.3742 57.4319 29.1324V25.8816H60.1085V29.1324C60.1085 29.453 60.1573 29.7026 60.2549 29.8811C60.3564 30.0597 60.5321 30.1855 60.782 30.2586C61.0358 30.3316 61.3931 30.3682 61.8538 30.3682C62.2052 30.3682 62.5645 30.3276 62.9315 30.2464C63.3024 30.1612 63.7144 30.0374 64.1673 29.8751Z" fill="#191919"/>
<path d="M71.4781 35.4148C70.5371 35.4148 69.7248 35.222 69.0415 34.8365C68.3621 34.4469 67.8389 33.8929 67.4719 33.1746C67.1087 32.4522 66.9272 31.5938 66.9272 30.5995C66.9272 29.6336 67.1107 28.7894 67.4777 28.067C67.8448 27.3406 68.3621 26.7764 69.0298 26.3747C69.6975 25.9688 70.4843 25.7659 71.3901 25.7659C72.0305 25.7659 72.6162 25.8694 73.1472 26.0764C73.6782 26.2833 74.137 26.5898 74.5236 26.9956C74.9101 27.4014 75.2108 27.9027 75.4255 28.4992C75.6403 29.0918 75.7477 29.7716 75.7477 30.5386V31.2813H67.9287V29.5524H73.0828C73.0789 29.2359 73.0066 28.9538 72.8661 28.7062C72.7255 28.4587 72.5322 28.2659 72.2862 28.1279C72.0441 27.9859 71.765 27.9148 71.4487 27.9148C71.1285 27.9148 70.8415 27.9899 70.5877 28.1401C70.3339 28.2862 70.1328 28.4871 69.9845 28.7428C69.8361 28.9944 69.758 29.2805 69.7502 29.6011V31.3604C69.7502 31.7419 69.8224 32.0768 69.9669 32.3649C70.1114 32.649 70.3164 32.8702 70.5819 33.0285C70.8474 33.1867 71.1637 33.2659 71.5307 33.2659C71.7845 33.2659 72.0149 33.2294 72.2218 33.1563C72.4287 33.0832 72.6064 32.9757 72.7548 32.8337C72.9032 32.6916 73.0144 32.5171 73.0886 32.3101L75.7184 32.3893C75.609 33.0021 75.3689 33.5358 74.998 33.9903C74.6309 34.4408 74.1487 34.7918 73.5513 35.0435C72.9539 35.291 72.2629 35.4148 71.4781 35.4148Z" fill="#191919"/>
<path d="M76.5603 28.1644V25.8876H84.9942V28.1644H82.1185V35.2383H79.4009V28.1644H76.5603Z" fill="#191919"/>
<path d="M88.0398 28.5906H90.7691C92.0069 28.5906 92.9772 28.8929 93.68 29.4976C94.3828 30.0983 94.7362 30.914 94.7401 31.9449C94.7362 32.6145 94.5742 33.1969 94.254 33.692C93.9377 34.1831 93.4828 34.5646 92.8893 34.8365C92.2997 35.1043 91.593 35.2383 90.7691 35.2383H86.3589V25.8876H89.0706V32.9615H90.7691C91.144 32.9615 91.4524 32.8661 91.6945 32.6754C91.9366 32.4846 92.0596 32.2391 92.0635 31.9388C92.0596 31.6222 91.9366 31.3645 91.6945 31.1656C91.4524 30.9668 91.144 30.8673 90.7691 30.8673H88.0398V28.5906ZM95.5484 35.2383V25.8876H98.4124V35.2383H95.5484Z" fill="#191919"/>
</g>
<defs>
<clipPath id="clip0_17_2">
<rect width="115" height="40" fill="white"/>
</clipPath>
</defs>
</svg>
